<?xml version="1.0" standalone="no"?>
<!DOCTYPE svg PUBLIC "-//W3C//DTD SVG 20010904//EN"
 "http://www.w3.org/TR/2001/REC-SVG-20010904/DTD/svg10.dtd">
<svg version="1.0" xmlns="http://www.w3.org/2000/svg"
 width="84.000000pt" height="84.000000pt" viewBox="0 0 84.000000 84.000000"
 preserveAspectRatio="xMidYMid meet">

<g transform="translate(0.000000,84.000000) scale(0.100000,-0.100000)"
fill="#ffffff" stroke="none">
<path d="M323 783 l-93 -55 0 -129 0 -129 -101 -58 -100 -59 80 -47 c44 -25
84 -46 90 -46 5 0 51 24 103 54 l93 54 3 131 3 130 72 42 c135 78 132 64 33
120 -47 27 -87 49 -88 48 -2 -1 -45 -26 -95 -56z"/>
<path d="M527 643 l-78 -45 3 -117 3 -116 105 -60 105 -61 3 -113 c2 -82 6
-111 15 -109 7 2 45 21 85 43 l72 40 -2 119 -3 118 -107 62 -107 61 -1 113 c0
61 -3 112 -7 111 -5 -1 -43 -21 -86 -46z"/>
<path d="M315 260 c-55 -32 -106 -59 -114 -60 -7 0 -53 23 -101 50 -48 28 -90
50 -94 50 -4 0 -5 -43 -4 -96 l3 -96 93 -54 c52 -30 97 -54 102 -54 5 0 54 27
110 60 56 33 107 60 113 60 7 0 50 -23 97 -50 47 -28 88 -50 92 -50 5 0 8 42
8 94 l0 94 -96 56 c-53 31 -99 56 -103 56 -3 -1 -51 -28 -106 -60z"/>
</g>
</svg>
